<svg width="130" height="37" viewBox="0 0 130 37" fill="none" xmlns="http://www.w3.org/2000/svg">
<g clip-path="url(#clip0_211_4709)">
<path d="M53.8238 21.591C52.0553 21.591 50.6218 20.4056 50.6218 18.4443C50.6218 16.5959 52.0553 15.2962 53.8238 15.2962C54.5324 15.2927 55.2204 15.5314 55.7704 15.9718C55.8446 16.0321 55.9309 16.0762 56.0238 16.101C56.1166 16.1259 56.2137 16.1309 56.3086 16.1159C56.4036 16.1009 56.4942 16.0661 56.5745 16.0139C56.6547 15.9617 56.7228 15.8932 56.7741 15.813L57.1543 15.2154C57.2496 15.0664 57.2853 14.8878 57.2544 14.7143C57.2236 14.5409 57.1285 14.3848 56.9875 14.2766C56.0391 13.5569 54.8724 13.1727 53.6753 13.1859C50.5851 13.1859 48.0801 15.3547 48.0801 18.4443C48.0801 21.722 50.5851 23.7014 53.6753 23.7014C54.9672 23.7071 56.223 23.2825 57.2392 22.4965C57.3966 22.3735 57.5023 22.1974 57.5359 22.0023C57.5696 21.8071 57.5289 21.6066 57.4215 21.4392L57.1473 21.0074C57.093 20.9215 57.0212 20.8476 56.9363 20.7906C56.8515 20.7336 56.7555 20.6947 56.6545 20.6763C56.5535 20.658 56.4498 20.6606 56.3498 20.684C56.2499 20.7074 56.1561 20.7512 56.0743 20.8124C55.4302 21.3064 54.64 21.5798 53.8238 21.591Z" fill="#00A599"/>
<path d="M64.1504 13.1873C61.0602 13.1873 58.5552 15.3561 58.5552 18.4457C58.5552 21.7234 61.0602 23.7028 64.1504 23.7028C67.2407 23.7028 69.7457 21.7234 69.7457 18.4457C69.7457 15.3561 67.2407 13.1873 64.1504 13.1873ZM64.1504 21.559C62.488 21.559 61.1408 20.3861 61.1408 18.4457C61.1408 16.6167 62.488 15.331 64.1504 15.331C65.8129 15.331 67.1601 16.6167 67.1601 18.4457C67.1601 20.3861 65.8129 21.559 64.1504 21.559Z" fill="#00A599"/>
<path d="M81.1441 17.1906C81.1441 14.9786 80.3524 13.1873 77.4559 13.1873C75.0526 13.1873 73.9655 15.4675 73.9655 15.4675V14.2376C73.9655 13.8057 73.7436 13.4561 73.3054 13.4561H72.3639C72.1535 13.4561 71.9518 13.5384 71.8031 13.685C71.6544 13.8315 71.5708 14.0303 71.5708 14.2376V22.6956C71.5708 22.7983 71.5913 22.8999 71.6312 22.9947C71.671 23.0895 71.7294 23.1757 71.8031 23.2482C71.8767 23.3208 71.9642 23.3783 72.0604 23.4176C72.1566 23.4569 72.2597 23.4771 72.3639 23.4771H73.3054C73.4095 23.4771 73.5126 23.4569 73.6088 23.4176C73.7051 23.3783 73.7925 23.3208 73.8661 23.2482C73.9398 23.1757 73.9982 23.0895 74.0381 22.9947C74.0779 22.8999 74.0984 22.7983 74.0984 22.6956V18.9444C74.0984 16.8299 75.4923 15.4536 76.8918 15.4536C78.1485 15.4536 78.6278 16.2309 78.6278 17.192V22.697C78.6278 22.7997 78.6483 22.9013 78.6881 22.9961C78.728 23.0909 78.7864 23.1771 78.8601 23.2496C78.9337 23.3222 79.0211 23.3797 79.1174 23.419C79.2136 23.4583 79.3167 23.4785 79.4208 23.4785H80.3623C80.4665 23.4785 80.5696 23.4583 80.6658 23.419C80.7621 23.3797 80.8495 23.3222 80.9231 23.2496C80.9968 23.1771 81.0552 23.0909 81.095 22.9961C81.1349 22.9013 81.1554 22.7997 81.1554 22.697L81.1441 17.1906Z" fill="#00A599"/>
<path d="M89.8096 15.5246C89.7176 15.6738 89.5721 15.7834 89.4019 15.8319C89.2317 15.8804 89.0493 15.8642 88.8907 15.7865C87.6863 15.1958 85.4979 14.7292 85.4979 16.2545C85.4979 16.8646 86.5596 17.1906 87.0869 17.4051C88.1952 17.8592 89.4901 18.1879 90.1969 19.2368C90.4924 19.6728 90.5433 20.1673 90.5433 20.6632C90.5433 23.0536 88.0142 23.6929 86.8593 23.7027C85.6096 23.7138 84.227 23.3753 83.1979 22.6677C83.0553 22.5675 82.9555 22.4187 82.9179 22.2501C82.8802 22.0816 82.9075 21.9052 82.9943 21.7553L83.3053 21.2232C83.4054 21.0522 83.57 20.927 83.7632 20.8749C83.9564 20.8227 84.1627 20.8478 84.3373 20.9446C84.8808 21.2551 85.4629 21.4948 86.069 21.6578C86.8466 21.8556 88.1358 21.7066 88.1358 20.8346C88.1358 19.6812 87.0049 19.6631 85.7199 19.1533C84.4886 18.6685 83.1315 18.0013 83.1315 16.3673C83.1315 14.1386 84.9607 13.1858 86.9144 13.1858C88.1867 13.1858 89.1522 13.5034 89.9566 14.0466C90.1014 14.1442 90.2028 14.2927 90.2399 14.4616C90.277 14.6306 90.2469 14.8071 90.1559 14.9549C90.04 15.1471 89.9269 15.3337 89.8096 15.5246Z" fill="#00A599"/>
<path d="M96.4115 13.1873C94.6402 13.1873 93.4668 13.7681 92.8674 14.1707C92.7316 14.2614 92.6351 14.3989 92.597 14.5561C92.5588 14.7133 92.5816 14.8789 92.661 15.0204L92.9975 15.6277C93.0811 15.7773 93.2213 15.8884 93.3876 15.9366C93.5538 15.9849 93.7327 15.9665 93.8853 15.8854C94.5975 15.5176 95.3833 15.3092 96.1867 15.2753C96.9388 15.2753 98.0782 15.5107 98.0782 17.3285C93.1374 17.3285 91.7012 18.695 91.7012 20.5756C91.7012 22.4561 92.7784 23.7028 95.2353 23.7028C97.271 23.7028 98.2931 21.7429 98.2931 21.7429V22.6956C98.2931 22.9029 98.3766 23.1017 98.5253 23.2482C98.6741 23.3948 98.8758 23.4771 99.0861 23.4771H99.7661C99.9762 23.4767 100.178 23.3942 100.326 23.2477C100.474 23.1012 100.558 22.9027 100.558 22.6956V17.0054C100.558 15.0552 99.1186 13.1873 96.4115 13.1873ZM95.7117 21.8459C94.6458 21.8459 94.1567 21.1411 94.1567 20.3931C94.1567 19.0684 95.8913 18.7981 98.0768 18.7981C98.081 20.5895 97.0815 21.8459 95.7145 21.8459H95.7117Z" fill="#00A599"/>
<path d="M105.412 10.2968V20.3123C105.412 21.8626 106.795 20.9071 106.795 22.073V22.9088C106.795 23.0835 106.724 23.2511 106.599 23.3747C106.474 23.4982 106.304 23.5676 106.126 23.5676C103.432 23.5676 102.885 22.1928 102.885 19.9459V10.2968C102.885 10.0896 102.968 9.89082 103.117 9.74426C103.266 9.59771 103.468 9.51538 103.678 9.51538H104.619C104.83 9.51538 105.031 9.59771 105.18 9.74426C105.329 9.89082 105.412 10.0896 105.412 10.2968Z" fill="#00A599"/>
<path d="M108.337 19.6993C108.337 21.9114 108.996 23.7027 111.893 23.7027C114.54 23.7027 115.442 21.4224 115.442 21.4224V22.6524C115.442 23.0842 115.664 23.4339 116.102 23.4339H117.051C117.155 23.4339 117.258 23.4137 117.355 23.3744C117.451 23.3351 117.538 23.2776 117.612 23.205C117.685 23.1324 117.744 23.0463 117.784 22.9515C117.824 22.8567 117.844 22.755 117.844 22.6524V14.2375C117.844 14.0303 117.761 13.8315 117.612 13.6849C117.463 13.5384 117.261 13.4561 117.051 13.4561H116.11C115.899 13.4561 115.697 13.5384 115.549 13.6849C115.4 13.8315 115.316 14.0303 115.316 14.2375V17.947C115.316 20.0615 113.996 21.4378 112.598 21.4378C111.34 21.4378 110.861 20.6605 110.861 19.6993V14.2375C110.861 14.0303 110.777 13.8315 110.628 13.6849C110.48 13.5384 110.278 13.4561 110.068 13.4561H109.126C108.916 13.4561 108.714 13.5384 108.565 13.6849C108.417 13.8315 108.333 14.0303 108.333 14.2375L108.337 19.6993Z" fill="#00A599"/>
<path d="M127.33 10.2968V14.615C126.572 13.7305 125.547 13.1872 124.402 13.1872C122.181 13.1872 119.75 14.8504 119.75 18.4457C119.75 21.3486 121.245 23.7028 124.203 23.7028C125.506 23.7028 126.678 23.0425 127.492 21.988V22.7472C127.492 22.9409 127.571 23.1265 127.71 23.2634C127.849 23.4002 128.038 23.4771 128.234 23.4771H129.067C129.263 23.4767 129.451 23.3997 129.59 23.2629C129.729 23.1261 129.807 22.9407 129.808 22.7472V10.2968C129.808 10.0896 129.724 9.89082 129.575 9.74426C129.427 9.59771 129.225 9.51538 129.015 9.51538H128.127C127.917 9.51538 127.715 9.59771 127.566 9.74426C127.417 9.89082 127.334 10.0896 127.334 10.2968H127.33ZM124.826 21.6328C123.122 21.6328 122.262 20.1716 122.262 18.4457C122.262 16.3716 123.524 15.3631 124.94 15.3631C126.398 15.3631 127.389 16.7198 127.389 18.4457C127.386 20.5129 126.24 21.6328 124.826 21.6328Z" fill="#00A599"/>
<path d="M96.5331 28.3052C96.8919 28.3061 97.2445 28.3967 97.558 28.5685V29.1856C97.2597 28.9865 96.9126 28.8701 96.5529 28.8485C96.4071 28.8402 96.2622 28.8757 96.1373 28.9502C96.0905 28.9787 96.0521 29.0188 96.0258 29.0664C95.9996 29.114 95.9863 29.1676 95.9875 29.2218C95.9875 29.3611 96.0808 29.4823 96.2702 29.5965C96.323 29.6318 96.5242 29.7279 96.8738 29.8848C97.1231 29.9867 97.3445 30.1452 97.5199 30.3473C97.6545 30.5231 97.7247 30.7387 97.7192 30.9588C97.724 31.1006 97.696 31.2415 97.6375 31.3711C97.579 31.5007 97.4914 31.6155 97.3813 31.7068C97.1332 31.9016 96.8217 32.0006 96.5048 31.9854C96.3019 31.9889 96.0995 31.9631 95.904 31.9088C95.7057 31.8444 95.5159 31.757 95.3386 31.6483V30.9644C95.7288 31.2829 96.0958 31.4422 96.4398 31.4422C96.5895 31.4507 96.738 31.4122 96.8639 31.3321C96.9135 31.3004 96.954 31.2568 96.9817 31.2054C97.0094 31.154 97.0234 31.0964 97.0223 31.0382C97.0186 30.9513 96.9901 30.8671 96.9401 30.7954C96.8901 30.7237 96.8206 30.6674 96.7395 30.6329C96.5854 30.5507 96.3889 30.4518 96.1458 30.3362C95.8994 30.2364 95.6794 30.0825 95.5026 29.8862C95.3623 29.7186 95.2872 29.5073 95.2905 29.2901C95.2859 29.1517 95.3144 29.0143 95.3739 28.8889C95.4333 28.7635 95.522 28.6537 95.6326 28.5685C95.8936 28.3822 96.2113 28.2893 96.5331 28.3052Z" fill="#00A599"/>
<path d="M100.199 28.3052C100.553 28.3002 100.902 28.3795 101.218 28.5364C101.517 28.689 101.768 28.9197 101.943 29.2034C102.118 29.487 102.211 29.8126 102.211 30.1446C102.211 30.4766 102.118 30.8022 101.943 31.0858C101.768 31.3694 101.517 31.6002 101.218 31.7528C100.898 31.9107 100.545 31.993 100.188 31.993C99.8298 31.993 99.4769 31.9107 99.157 31.7528C98.8593 31.6008 98.6098 31.3709 98.436 31.0883C98.2636 30.8064 98.1741 30.4828 98.1773 30.1536C98.1771 29.8271 98.2665 29.5065 98.436 29.2259C98.6028 28.94 98.8477 28.7059 99.1429 28.5503C99.4681 28.3818 99.8315 28.2975 100.199 28.3052ZM98.9124 30.1495C98.9091 30.374 98.9656 30.5954 99.0764 30.7916C99.1832 30.9792 99.3421 31.1328 99.5345 31.2346C99.7391 31.3409 99.9676 31.3945 100.199 31.3906C100.368 31.3962 100.537 31.3684 100.695 31.3088C100.854 31.2492 100.998 31.1591 101.121 31.0437C101.241 30.9277 101.335 30.7882 101.397 30.6342C101.46 30.4803 101.489 30.3151 101.482 30.1495C101.486 29.9246 101.43 29.7028 101.32 29.5059C101.214 29.3171 101.054 29.1627 100.86 29.0616C100.655 28.9554 100.425 28.9017 100.193 28.9055C99.9613 28.9014 99.7321 28.9556 99.5274 29.0629C99.335 29.1636 99.1768 29.3176 99.0722 29.5059C98.9632 29.7032 98.9082 29.9249 98.9124 30.1495Z" fill="#00A599"/>
<path d="M103.503 28.3525L104.7 29.7692L105.897 28.3525H106.526V31.9436H105.82V29.4223H105.798L104.752 30.6872H104.653L103.599 29.4223H103.579V31.9436H102.872V28.3525H103.503Z" fill="#00A599"/>
<path d="M109.198 28.3052C109.552 28.3002 109.902 28.3796 110.217 28.5364C110.44 28.6516 110.636 28.8102 110.795 29.0027C110.953 29.1952 111.07 29.4174 111.138 29.6559C111.206 29.8943 111.224 30.144 111.191 30.3896C111.158 30.6352 111.074 30.8715 110.945 31.0842C110.773 31.3683 110.524 31.5998 110.226 31.7528C109.907 31.9146 109.552 31.9965 109.192 31.991C108.834 31.9955 108.481 31.9122 108.163 31.7486C107.866 31.5967 107.616 31.3667 107.442 31.0842C107.27 30.8022 107.18 30.4786 107.184 30.1495C107.183 29.8229 107.273 29.5024 107.442 29.2218C107.61 28.9361 107.854 28.7021 108.149 28.5462C108.473 28.3803 108.834 28.2974 109.198 28.3052ZM107.912 30.1495C107.908 30.374 107.965 30.5954 108.076 30.7916C108.183 30.9792 108.341 31.1329 108.534 31.2346C108.738 31.3409 108.967 31.3945 109.198 31.3906C109.368 31.3964 109.537 31.3687 109.695 31.3091C109.854 31.2495 109.999 31.1593 110.121 31.0438C110.241 30.9275 110.335 30.7879 110.397 30.634C110.459 30.48 110.488 30.315 110.482 30.1495C110.485 29.9247 110.429 29.7028 110.319 29.5059C110.213 29.3167 110.054 29.1622 109.86 29.0616C109.654 28.9554 109.425 28.9018 109.192 28.9056C108.961 28.9017 108.732 28.9559 108.527 29.063C108.334 29.1637 108.176 29.3176 108.071 29.5059C107.963 29.7034 107.908 29.925 107.912 30.1495Z" fill="#00A599"/>
<path d="M112.924 28.3051C113.283 28.306 113.636 28.3966 113.949 28.5683V29.1854C113.651 28.9866 113.305 28.8702 112.946 28.8483C112.797 28.8385 112.649 28.874 112.522 28.95C112.475 28.9788 112.437 29.0189 112.41 29.0665C112.384 29.114 112.371 29.1675 112.372 29.2217C112.372 29.3609 112.465 29.4821 112.654 29.5964C112.706 29.6316 112.907 29.7278 113.257 29.8847C113.506 29.9866 113.728 30.145 113.904 30.3472C114.038 30.5232 114.108 30.7387 114.102 30.9587C114.107 31.1004 114.079 31.2414 114.02 31.371C113.962 31.5005 113.874 31.6153 113.764 31.7067C113.517 31.9015 113.206 32.0005 112.889 31.9853C112.686 31.9888 112.483 31.963 112.287 31.9087C112.089 31.8444 111.899 31.7569 111.721 31.6482V30.9643C112.111 31.2828 112.478 31.442 112.823 31.442C112.972 31.4506 113.121 31.4121 113.247 31.332C113.297 31.3004 113.337 31.2568 113.365 31.2054C113.393 31.154 113.407 31.0964 113.407 31.0381C113.403 30.9512 113.374 30.8671 113.324 30.7954C113.274 30.7238 113.205 30.6674 113.124 30.6327C112.971 30.551 112.774 30.4521 112.531 30.336C112.285 30.2366 112.065 30.0827 111.888 29.8861C111.748 29.7186 111.672 29.5073 111.675 29.2899C111.67 29.1516 111.699 29.0141 111.758 28.8888C111.818 28.7634 111.906 28.6536 112.017 28.5683C112.28 28.3805 112.6 28.2875 112.924 28.3051Z" fill="#00A599"/>
<path d="M118.12 28.305C118.324 28.305 118.528 28.3284 118.728 28.3747C118.95 28.4302 119.165 28.5096 119.369 28.6115V29.2648C119.173 29.1494 118.965 29.0559 118.747 28.9862C118.554 28.93 118.353 28.9018 118.151 28.9026C117.906 28.8976 117.663 28.9516 117.444 29.06C117.241 29.1594 117.072 29.3141 116.956 29.5058C116.844 29.7018 116.785 29.9233 116.785 30.1486C116.785 30.3739 116.844 30.5954 116.956 30.7915C117.072 30.9819 117.241 31.1352 117.443 31.233C117.663 31.3387 117.905 31.3916 118.149 31.3877C118.344 31.3886 118.537 31.3605 118.722 31.3041C118.96 31.2225 119.191 31.12 119.41 30.9976V31.6509C119.203 31.7603 118.984 31.8472 118.757 31.91C118.53 31.9652 118.297 31.9914 118.063 31.988C117.706 31.9935 117.353 31.9157 117.033 31.761C116.739 31.6147 116.493 31.3885 116.326 31.1091C116.154 30.8279 116.064 30.5054 116.067 30.1772C116.062 29.8339 116.154 29.496 116.334 29.2021C116.51 28.9154 116.765 28.684 117.069 28.5349C117.396 28.3776 117.756 28.2988 118.12 28.305Z" fill="#00A599"/>
<path d="M121.942 28.3052C122.147 28.3051 122.351 28.3285 122.55 28.3748C122.772 28.4304 122.987 28.5098 123.192 28.6116V29.2649C122.996 29.1495 122.787 29.056 122.57 28.9863C122.376 28.9301 122.175 28.902 121.973 28.9027C121.728 28.8977 121.486 28.9517 121.267 29.0601C121.064 29.1595 120.895 29.3143 120.779 29.5059C120.666 29.702 120.607 29.9234 120.607 30.1487C120.607 30.3741 120.666 30.5955 120.779 30.7916C120.894 30.982 121.063 31.1354 121.265 31.2332C121.485 31.3388 121.727 31.3918 121.972 31.3878C122.164 31.3881 122.354 31.3599 122.537 31.3042C122.776 31.2227 123.006 31.1201 123.226 30.9978V31.6511C123.018 31.7607 122.799 31.8476 122.573 31.9102C122.346 31.9653 122.112 31.9915 121.879 31.9882C121.522 31.9937 121.169 31.9159 120.848 31.7611C120.554 31.6148 120.309 31.3886 120.141 31.1092C119.969 30.828 119.88 30.5055 119.883 30.1773C119.877 29.834 119.97 29.4961 120.15 29.2022C120.326 28.9158 120.581 28.6845 120.885 28.535C121.214 28.3767 121.576 28.2979 121.942 28.3052Z" fill="#00A599"/>
<path d="M124.466 28.3525V29.8848H124.481C124.567 29.7673 124.679 29.6714 124.809 29.6049C124.939 29.5383 125.084 29.503 125.23 29.5017C125.347 29.497 125.463 29.517 125.571 29.5606C125.68 29.6041 125.777 29.67 125.857 29.7539C126.02 29.9343 126.105 30.1701 126.094 30.4113V31.9436H125.454V30.527C125.461 30.3895 125.42 30.2537 125.338 30.1425C125.3 30.0964 125.251 30.0597 125.196 30.0355C125.141 30.0113 125.081 30.0002 125.021 30.0032C124.921 30.0022 124.822 30.0308 124.738 30.0854C124.629 30.1622 124.534 30.2564 124.456 30.364V31.952H123.814V28.3525H124.466Z" fill="#00A599"/>
<path d="M128.708 28.3052C128.912 28.3051 129.116 28.3284 129.316 28.3748C129.538 28.4301 129.753 28.5095 129.957 28.6116V29.2649C129.761 29.1492 129.553 29.0558 129.335 28.9863C129.142 28.9301 128.941 28.902 128.739 28.9027C128.494 28.8979 128.251 28.9519 128.032 29.0601C127.83 29.1591 127.661 29.314 127.546 29.5059C127.432 29.7017 127.373 29.9233 127.373 30.1487C127.373 30.3742 127.432 30.5958 127.546 30.7916C127.66 30.9822 127.829 31.1357 128.031 31.2332C128.251 31.3388 128.493 31.3918 128.737 31.3878C128.932 31.3887 129.125 31.3605 129.311 31.3042C129.549 31.2224 129.779 31.1198 129.998 30.9978V31.6511C129.793 31.7616 129.575 31.8495 129.35 31.9129C129.123 31.9681 128.89 31.9943 128.657 31.9909C128.299 31.9967 127.946 31.9189 127.625 31.7639C127.331 31.6181 127.085 31.3918 126.918 31.112C126.745 30.8312 126.655 30.5085 126.658 30.1801C126.652 29.8368 126.745 29.4989 126.925 29.205C127.101 28.9183 127.357 28.6869 127.662 28.5378C127.987 28.3798 128.345 28.3001 128.708 28.3052Z" fill="#00A599"/>
<path d="M31.5982 13.885L28.1319 23.2722C28.0895 23.3875 28.0758 23.5112 28.0921 23.6328C28.1085 23.7544 28.1543 23.8703 28.2257 23.9708C28.2971 24.0712 28.3921 24.1532 28.5025 24.2098C28.6129 24.2665 28.7355 24.296 28.86 24.2961H38.2368C38.6452 24.2963 39.0438 24.1726 39.3784 23.9418C39.713 23.7111 39.9674 23.3844 40.107 23.0062L43.5747 13.6176C43.6175 13.5024 43.6315 13.3788 43.6154 13.2571C43.5993 13.1355 43.5536 13.0195 43.4823 12.919C43.4109 12.8185 43.316 12.7365 43.2056 12.6798C43.0952 12.6232 42.9726 12.5937 42.8481 12.5938H33.4699C33.0612 12.5937 32.6623 12.7177 32.3275 12.9487C31.9927 13.1797 31.7381 13.5066 31.5982 13.885Z" fill="#FECC2F"/>
<path d="M12.4026 23.2751L15.8774 13.8712C16.0153 13.4967 16.267 13.1733 16.598 12.9447C16.9291 12.7162 17.3236 12.5937 17.7279 12.5938H27.3704C27.6208 12.5938 27.8652 12.5179 28.0703 12.3763C28.2754 12.2348 28.4313 12.0345 28.5169 11.8026L32.1359 2.00309C32.1909 1.85312 32.2136 1.69352 32.2026 1.53443C32.1916 1.37534 32.1471 1.22024 32.072 1.07901C31.9969 0.937769 31.8928 0.813484 31.7663 0.714055C31.6397 0.614626 31.4936 0.542229 31.3372 0.501468C30.1101 0.176907 28.5551 0 26.6339 0C10.8688 0 1.0368 9.75077 0.0627941 21.226C-0.659585 29.7594 4.76038 37 16.0612 37C16.776 37.0017 17.4902 36.9551 18.1986 36.8607C18.5365 36.8151 18.8554 36.6795 19.1207 36.4683C19.386 36.2572 19.5878 35.9786 19.7042 35.6628L23.5592 25.2266C23.5962 25.1224 23.6075 25.011 23.5922 24.9017C23.5769 24.7923 23.5355 24.6881 23.4713 24.5976C23.4071 24.5071 23.3219 24.433 23.2229 24.3813C23.1239 24.3296 23.0139 24.3019 22.9019 24.3003H13.1292C13.0046 24.3005 12.8818 24.2709 12.7712 24.2142C12.6607 24.1575 12.5657 24.0753 12.4943 23.9746C12.4229 23.8739 12.3773 23.7577 12.3614 23.6359C12.3454 23.5141 12.3596 23.3903 12.4026 23.2751Z" fill="#00A599"/>
</g>
<defs>
<clipPath id="clip0_211_4709">
<rect width="130" height="37" fill="white"/>
</clipPath>
</defs>
</svg>
